<svg xmlns="http://www.w3.org/2000/svg" width="354" height="64" viewBox="0 0 354 64">
    <g fill="none" fill-rule="evenodd">
        <path fill="#FFF" d="M56 52h8v12H34V28h30v12h-8a1 1 0 0 0 0 2h8v8h-8a1 1 0 0 0 0 2zM156 52h8v12h-30V28h30v12h-8a1 1 0 1 0 0 2h8v8h-8a1 1 0 1 0 0 2zM66 28v18h8v18h16V46h8V28zM100 28v18h8v18h16V46h8V28zM316 28l10.038 18v18h17.924V46L354 28zM14.5 52a1.5 1.5 0 1 1 3 0 1.5 1.5 0 0 1-3 0zm0-12a1.5 1.5 0 1 1 3 0 1.5 1.5 0 0 1-3 0zM18 28H0v36h18c12.605 0 18.132-14.027 10-20 5.896-6.48-.292-16-10-16zM180.5 42a1.5 1.5 0 1 1 3 0 1.5 1.5 0 0 1-3 0zm3.697-14H166v36h33l-6-11c3.405-2.633 5-6.392 5-11 0-7.998-5.823-14-13.803-14zM234 43.5a1.5 1.5 0 1 1 0-3 1.5 1.5 0 0 1 0 3M218 28v36h18v-7.872c7.93 0 14-6.281 14-14.128 0-7.998-5.845-14-13.825-14H218zM303 26l23 38h-74V28h18v18h10v18l23-38zm0 29a1 1 0 0 0-1 1v8h2v-8a1 1 0 0 0-1-1z"/>
        <path fill="#FF4572" d="M65.25 4.357l.033.138.337-.081-.033-.138-.336.081zm-1.095 1.032l.198-.048.034.138-.077.017c-.081.02-.133-.016-.155-.107zm-.237-.653l.018.077c.026.057.16.12.399.18a.591.591 0 0 1 .184-.108l-.169-.17.122-.029.503.01a.485.485 0 0 1 .185-.109l-.016-.06-.197.047-.018-.077c-.02-.08.082-.148.307-.2l-.034-.138a7.918 7.918 0 0 0-1.284.577zm-.502.538l.018.076.062-.015c.231-.109.43-.181.594-.22l-.015-.06c-.014-.061-.097-.112-.247-.152l-.075.018c-.133.214-.245.332-.337.353zm-.318.156l.032.137.077-.019c.081-.019.11-.074.09-.166l-.2.048zm-2.1 2.107l.018.076.122-.028 1.708-.84-.015-.061-.199.046c-.886.49-1.43.758-1.633.807zm-.44.25l.013.06.26-.061-.015-.061-.259.061zm-.688.37l.018.076.198-.046c.161-.135.31-.22.442-.25l-.018-.076-.2.047a.879.879 0 0 1-.44.25zm-.749.387l.018.076.2-.047a.444.444 0 0 1 .241-.138l-.014-.062-.062.015-.383.156zm-1.404.686l-.029.153.199-.049c-.022-.09-.079-.125-.17-.104zm-1.48.849l.016.062.122-.031c.132-.128.233-.199.304-.216l-.014-.06-.062.013a.758.758 0 0 1-.366.232zm-7.34 7.71l.014.06a.485.485 0 0 1 .184-.108l-.032-.138-.062.016c-.086.04-.12.098-.104.17zm-.334.705l.078-.018c.06-.014.126-.122.199-.321l-.019-.074c-.124.028-.209.166-.258.413zM65.032 1.947c.223.031.35.093.382.182-.078.04-.108.096-.09.167.429-.103.752-.012.97.27.072-.017.158.03.262.147l-.275.339.06-.015.124-.094c.28-.001.444.1.492.303-.112.165-.483.393-1.114.681a.506.506 0 0 0-.213-.013l.08.334c.098-.13.294-.295.592-.494.276-.022.424.013.446.104-.107.187-.432.403-.977.65.017.071-.38.283-1.19.635l-.46.11c.016.06-.075.178-.27.352l.199-.046.028.122-.378.17.013.061.46-.109.033.138c-.794.424-1.21.64-1.252.65l.015.06.138-.032.383-.155.09.107.018.077c-.989.416-2.46 1.14-4.412 2.17-1.138.645-2.605 1.41-4.398 2.296l-.106-.104c.294-.22.776-.478 1.448-.777l-.015-.06-.2.046c-1.172.59-1.777.92-1.815.993.06.072.097.133.11.182-.216.052-.38.536-.495 1.454-.367 2.255-2.127 6.513-5.279 12.776-1.56 3.074-3.583 7.63-6.066 13.668-.265.74-.529 1.602-.79 2.587l-.322-.133-.138.033-.166.182a1.184 1.184 0 0 1-.248-.504c.04-.01.054-.038.042-.09-.225.054-.38-.098-.464-.454.051-.012.07-.038.062-.079l-.138.032-.166.186c-.132-.152-.237-.385-.312-.7.04-.01.055-.04.043-.09l-.136-.032.06.26-.274.064c-.093.022-.149-.008-.167-.089l-.019-.076-.033-.477c-.09.023-.153-.033-.183-.165.002-.579.17-1.254.504-2.019.12-.49.357-.873.711-1.15l.087-.246-.015-.06-.137.032c-.036-.153.212-.892.747-2.222l.199-.32-.014-.061-.095-.123.243-.201-.109-.12-.016-.06c.33-.797.6-1.237.818-1.321l.028-.15a.475.475 0 0 1-.109-.185c.194-.046.387-.322.579-.829a.606.606 0 0 1-.126-.26l.122-.028.152.028c-.017-.072.265-.675.845-1.81l1.158-2.801-.093-.124a34.978 34.978 0 0 1 1.719-3.432c.132-.03.511-.615 1.135-1.75l.32-.14-.013-.062-.185-.166c.36-.835.567-1.259.617-1.27a.616.616 0 0 0 .214.013c-.046-.193.174-.76.661-1.703l-.093-.122c.129-.405.325-.758.587-1.057a.485.485 0 0 1-.107-.184c.05-.012.253-.338.606-.98l.094.122c-.042.01-.146.244-.318.702l.062-.013c.144-.077.388-.72.736-1.928l-.032-.14c-.134.032-.216-.017-.247-.15l-.062.015c-.06.11-.503.334-1.326.669a121.216 121.216 0 0 1-7.433 4.075c-.867.614-2.047 1.29-3.54 2.029-.103-.16-.19-.229-.261-.212l-.324.14c-.008-.041-.035-.055-.074-.046l-.02-.35c-.328-.34-.528-.503-.6-.485l-.25-.166-.075-.32c-.204.047-.586-.264-1.145-.938-.091.023-.148-.007-.167-.088.191-.238 1.06-.75 2.609-1.535 2.284-1.485 6.471-3.763 12.56-6.835C58.988 4.69 63.95 2.2 65.032 1.947z"/>
        <path fill="#FF4572" d="M72.678 10.907l.108-.025.029.122-.214.05c-.01-.083.017-.132.077-.147m-.077.147c.024.102-.108.224-.398.368l-.029-.122c.223-.149.365-.231.427-.246m-1.363 1.74l.014.06.06-.015a.373.373 0 0 1 .155-.1l-.03-.122-.106.025c-.079.03-.11.08-.093.151m-4.784 4.61l.06-.015c.128-.095.186-.173.171-.234l-.046.011c-.138.096-.2.176-.185.238m-.055-2.467l.014.061.276-.065c.33-.336.56-.519.692-.55l-.017-.076-.169.04c-.16.188-.425.384-.796.59m-1.107 3.289l.014.06.108-.025c.428-.37.698-.568.81-.595l-.014-.06-.23.054c-.388.36-.618.548-.688.566m-.104-2.198l.046-.01c.121-.126.305-.256.553-.389l-.032-.137c-.393.297-.582.475-.567.536m-.572 2.824l.062-.016c.333-.228.527-.407.582-.54l-.122.03c-.362.29-.537.465-.522.526m-.246.187l.108-.025c.081-.019.112-.07.093-.15l-.122.028c-.07.026-.095.076-.079.147m-.565.342l.014.061.107-.024a.415.415 0 0 1 .154-.101l-.018-.077-.06.014a.327.327 0 0 1-.197.127m-.185.238l.061-.014c.071-.017.097-.068.078-.148l-.045.01c-.08.03-.112.08-.094.152m-.323.14l.033.137c.1-.119.187-.189.258-.205l-.014-.062-.123.03a.378.378 0 0 1-.154.1m-.334.29l.014.06.062-.016a.387.387 0 0 1 .198-.11l-.013-.06-.108.024a.424.424 0 0 1-.153.102m-2.438 1.911l.015.06.061-.014c.665-.467.992-.743.982-.827l-.06.014c-.615.5-.946.755-.998.767m-.52.526l.06-.015c.072-.016.098-.065.08-.147l-.047.01c-.079.03-.11.082-.093.152m.123-11.346l.09.108c-.02.005-.102.158-.246.46l-.06.014-.016-.06c.125-.34.202-.515.232-.522m-.603 2.62l.014.063c.071-.017.096-.072.074-.163l-.014-.061c-.07.027-.094.082-.074.162m-1.447 13.93l.018.076c.05-.012.09-.091.12-.238l-.015-.06c-.06.014-.102.088-.123.222m-.112-8.877c.05-.012.096-.136.137-.37l-.014-.06a.419.419 0 0 0-.123.43M68.84 5.183c.792.017 1.234.222 1.329.619.904.99 1.405 1.695 1.508 2.123.05.577.091.927.121 1.05.05-.013.182-.113.397-.304.063.04.165.042.308.008-.022-.092.15-.181.518-.267l.033.137.257-.142.018.076c.04-.009.055-.038.043-.09l.402-.015.12-.028.03.122-.106.299c.05.073.08.131.09.17-.526.512-1.327 1.174-2.404 1.986l-.033.137.015.06c1.427-1.109 2.315-1.834 2.666-2.176l.093.124c-.1.528-.862 1.289-2.285 2.28l.014.06a.561.561 0 0 1 .09.17l-.107.027-.198-.083-.106.026.089.107a.588.588 0 0 0-.013.213l-.06.014-.292.005c.02.081-.026.205-.138.37a.4.4 0 0 1 .168.024.51.51 0 0 1 .154-.1c.009.042.035.056.075.047l.414-.5.122.035c.152-.176.269-.273.35-.292l.02.077c-.028.113-.35.409-.97.888.024.091.09.124.203.098l.027.122c-.658.403-.944.781-.86 1.136l-.06.224a.5.5 0 0 1 .106.169c-.118.092-.508 1.256-1.17 3.497a97.986 97.986 0 0 0-1.822 5.92c-.177.653-.408 1.089-.69 1.306-.312 1.361-.625 2.105-.937 2.233l.028.123c.072-.017.111-.005.122.035.016.071-.168.453-.552 1.145-.519-.413-.876-.598-1.069-.552l-.336.08-.03-.33-.61-.388c-.103.024-.18-.05-.23-.22.075-.63.697-2.629 1.867-5.996-.035-.195.242-1.087.833-2.676l.151-.583-.013-.06-1.41 1.009c-.008-.04-.034-.058-.075-.048-.004.206-1.435 1.37-4.29 3.494-.151.176-.459.447-.921.814-.596 1.976-1.011 3.283-1.249 3.917-.308.922-.487 1.387-.538 1.4l-.014-.06c.073-.19.099-.33.078-.422l-.124.03a9.555 9.555 0 0 1-.602 1.88l.076.11.032.139-.046.01-.124-.05c-.192.42-.6 1.011-1.227 1.77l-.061.014a1.808 1.808 0 0 0-.581-.2l.032-.136c-.012-.05-.256-.17-.732-.359l-.323.141c-.07.017-.117-.02-.139-.112l-.014-.06.063-.208c-.272-.056-.43-.13-.475-.227l-.046-.197c-.072.017-.117-.016-.136-.098.228-.353.617-1.363 1.169-3.03l-.016-.06c-1.79 1.486-2.866 2.327-3.23 2.52-.133-.11-.26-.149-.384-.12a5.932 5.932 0 0 1-.792-.617c-.436-.293-.686-.433-.747-.418-.113.026-.18-.006-.2-.097l.031-.137a1.705 1.705 0 0 1-.517-.41l-.076-.32c.32-.322.958-.855 1.913-1.596.951-.847 1.478-1.282 1.58-1.306.892-.91 2.323-2.144 4.288-3.704.293-.09.6-.785.926-2.086 1.072-3.451 1.73-5.464 1.97-6.035l.108-.025.018.075-.156.568.016.062c.224-.46.542-1.589.955-3.382.11-.166.23-.66.357-1.485l.092-.086c.695-.164 1.521.508 2.486 2.02l.029.121c-.696 2.687-1.214 4.532-1.558 5.537-.092.291-.128.475-.108.557l.06-.015c.17-.2.73-.644 1.687-1.332 3.065-2.507 4.63-3.768 4.69-3.783.081-.158.194-.587.34-1.287.05-.011.138-.216.258-.609l.123-.028-.138-.306.094-.086c.009.04.035.056.075.045-.016-.07.05-.44.204-1.109.052-.463.073-.936.066-1.417-.071.016-.117-.02-.14-.112l-.029-.12c.05-.11.055-.336.016-.681l-.35-.722c.041-.01.056-.036.046-.075M88.96 10.05l.152-.036c.018.071-.054.138-.212.196l-.011-.045c-.004-.065.02-.103.07-.115zm-1.37.018l.011.047.045-.012.235-.104-.023-.092-.045.011a.538.538 0 0 1-.223.15zm-.575-.717c.024.058.061.082.113.07l.024-.102-.137.032zm-.056 2.75l.01.044c.015.064-.012.102-.084.12l-.138.031-.022-.092a.499.499 0 0 0 .234-.103zm-.099 4.74l.011.046c.016.06-.008.098-.07.112l-.243.058c-.019-.07.083-.142.302-.215zm-2.304 1.448c.026.069.07.095.131.081l.02-.118-.15.037zM92.068.043c.004.02.105.077.3.17l.025.107c-.091.16-.49.476-1.198.943l-.102-.023c-.336.4-.81.765-1.421 1.09.008.031-.008.053-.05.061-.214.051-.756.398-1.625 1.045-.082.019-.432.27-1.05.748-.436.34-.756.555-.961.646a67.159 67.159 0 0 1-2.863 2.094l.066.08.023.093c-.006.107-.09.18-.254.22l-.047.01-.102-.025a.368.368 0 0 1-.013.15l-.103-.024-.106.025.067.08.011.046c-.153.036-.664.378-1.533 1.023l-2.07 1.358c-.036 1.243-.186 2.9-.447 4.968l.046-.01c.928-.67 1.667-1.146 2.213-1.425.635-.591 1.554-1.302 2.756-2.134.007.03.026.043.057.035-.019-.08.563-.487 1.746-1.218.704-.575 1.25-.908 1.637-1l.046-.01.347-.034-.068-.08c.332-.282.57-.44.713-.474-.018.111-.103.185-.255.22l.011.047.184-.043c.264-.203.508-.33.733-.383l.066.08c.175-.083.292-.16.35-.228l.046-.01.048.197.045-.01.128-.144.246-.058.025.107c-.062.014-.132.08-.213.197l.068.08c.034.142-.47.518-1.508 1.129l.01.046.138-.033c.428-.24.68-.403.757-.485l.103.023c-.012-.05.022-.111.101-.184l.224.06c-.024-.102-.005-.16.056-.174L89.517 9c.013.051.08.105.2.162-.061.013-.407.284-1.035.808-.633.46-1.03.721-1.189.78l.011.046.108-.025a.338.338 0 0 0 .127-.08h.21c.196-.079.431-.22.706-.425l.072.096.01.046-.44.25c-.008-.032-.026-.043-.058-.036.008.03-.01.051-.05.061l.087.093.01.044c-.07.017-.413.3-1.025.854-.101.024-.385.258-.85.701l.01.045.047-.01.233-.103c-.144.204-.305.33-.477.37l.068.08.01.046-.159-.059a.425.425 0 0 1-.223.15l.072.095.01.046-.163-.074-.091.022.025.107-.153.036-.026-.108c.02-.004.212-.13.573-.377l-.01-.045-.093.021c-.61.337-1.47.928-2.584 1.77l.022.093.046-.01c.081-.021.198-.096.35-.228l.011.044c.012.052-.214.238-.674.561.039.165-.733.77-2.314 1.82-.008-.031-.026-.042-.057-.033-.102.249-.564.593-1.385 1.035-1.144.764-1.702 1.201-1.676 1.314-.447 1.962-.664 2.974-.65 3.035l.046-.011 4.768-3.252c.007.03.031.04.072.03-.023-.102.317-.37 1.02-.804 1.095-.828 1.855-1.347 2.28-1.554.07.016.139.015.21-.001a.349.349 0 0 0 .127-.079l.103.023c.39-.218.713-.446.97-.678l.068.08c-.121.082-.176.149-.162.2l.09-.021.132-.128.159.06a.895.895 0 0 1 .376-.187c.003.192-.025.295-.088.31l-.068-.08.093-.022c-.015-.061-.053-.084-.113-.07.019.081-.034.158-.156.23l.153.173c-.345.264-.71.587-1.094.967-.827.508-1.23.806-1.207.897l.044-.01 1.347-.93.107-.025.128.13c.019.082-.11.177-.385.283l.072.097c-.147.153-.748.613-1.805 1.377.018.072.071.095.163.074.738-.518 1.133-.783 1.183-.795l.069.08-2.338 1.921-1.791 1.439c-.275.064-.956.483-2.044 1.254.015.062-.22.3-.702.715l.014.061c.122-.073.223-.148.3-.232l.047-.011.022.091c-.168.116-.24.218-.218.31-.04.01-.065-.002-.072-.032-.116.06-.224.102-.325.126l.067.08.014.06-.163-.074-.046.011c.047.194-.307.497-1.06.912-.964.656-1.428 1.057-1.394 1.199-.105.465-.225.73-.36.793l-.257.012c.015.061-.008.098-.07.113l-.106.026c-.028-.112-.22-.215-.577-.314-.011-.051-.11-.098-.292-.14-.038-.162-.103-.234-.195-.212l-.305.281-.046.011-.02-.09c.104-.326.158-.597.16-.812-.026-.113-.172-.159-.437-.138l-.07-.096.024-.102c-.19-.073-.363-.236-.521-.49l-.022-.09c.051-.152.447-.482 1.186-.99.012-.27.097-.564.259-.882l.045-.01-.067-.082c.423-.893.633-1.705.631-2.434a1.667 1.667 0 0 0-.3.231c-.383-.027-.8-.217-1.251-.573-.601-.394-.92-.672-.96-.835l-.119-.23c.375-.463 1.563-1.265 3.565-2.404.132-.031.281-.898.446-2.602.12-.489.176-.888.167-1.198l.08-.067-.067-.08c.081-.02.121-.486.12-1.398-.131.128-.248.204-.35.229l-.137.032c-.735-.095-1.209-.234-1.427-.419l-.01-.046c-.029-.122.695-.632 2.174-1.529l.164-.392-.048-.198-.124-.116c-.007-.073.015-.117.067-.128.007.031.026.04.057.033.055-.174.104-.265.145-.274.152-.036.507.03 1.065.199l.045-.012c2.08-1.307 5.395-3.561 9.944-6.762C90.275.837 91.508.176 92.068.043z"/>
    </g>
</svg>
