<svg xmlns="http://www.w3.org/2000/svg" width="24" height="24" viewBox="0 0 24 24">
    <path fill="#FFF" fill-rule="evenodd" d="M12 0C8.74 0 8.332.015 7.053.072 5.775.132 4.905.333 4.14.63a5.861 5.861 0 0 0-2.125 1.385A5.83 5.83 0 0 0 .63 4.14c-.297.765-.5 1.635-.558 2.913C.012 8.333 0 8.741 0 12c0 3.26.015 3.668.072 4.947.06 1.278.261 2.15.558 2.913.306.789.717 1.46 1.385 2.125A5.83 5.83 0 0 0 4.14 23.37c.765.297 1.635.5 2.913.558 1.28.06 1.688.072 4.947.072 3.26 0 3.668-.015 4.947-.072 1.278-.06 2.15-.261 2.913-.558a5.861 5.861 0 0 0 2.125-1.385 5.83 5.83 0 0 0 1.385-2.125c.297-.765.5-1.635.558-2.913.06-1.28.072-1.688.072-4.947 0-3.26-.015-3.668-.072-4.947-.06-1.278-.261-2.15-.558-2.913a5.861 5.861 0 0 0-1.385-2.125A5.83 5.83 0 0 0 19.86.63c-.765-.297-1.635-.5-2.913-.558C15.667.012 15.259 0 12 0zm0 2.16c3.204 0 3.585.015 4.85.072 1.17.054 1.804.249 2.227.414.561.218.96.477 1.38.897.42.42.68.819.897 1.38.165.423.36 1.058.414 2.228.057 1.265.07 1.645.07 4.849s-.015 3.585-.075 4.85c-.06 1.17-.255 1.804-.42 2.227a3.81 3.81 0 0 1-.9 1.38c-.42.42-.825.68-1.38.897-.42.165-1.064.36-2.235.414-1.274.057-1.65.07-4.86.07-3.21 0-3.585-.015-4.86-.075-1.17-.06-1.814-.255-2.234-.42-.57-.224-.96-.48-1.38-.9-.42-.42-.69-.825-.9-1.38-.165-.42-.36-1.064-.42-2.235-.046-1.26-.06-1.65-.06-4.845 0-3.194.014-3.585.06-4.86.06-1.17.255-1.814.42-2.235.21-.57.48-.96.9-1.38.42-.42.81-.69 1.38-.9.42-.165 1.05-.36 2.22-.42 1.274-.045 1.65-.06 4.86-.06L12 2.16zm0 3.678a6.162 6.162 0 1 0 0 12.324 6.162 6.162 0 1 0 0-12.324zM12 16a4 4 0 1 1 0-8 4 4 0 0 1 0 8zm7.845-10.405a1.44 1.44 0 1 1-2.88 0 1.44 1.44 0 0 1 2.88 0z" opacity=".3"/>
</svg>
