<svg xmlns="http://www.w3.org/2000/svg" width="24" height="24" viewBox="0 0 24 24" class="ug5uRd">
  <path fill="#FFF" fill-rule="evenodd" d="M19.4 8.26c-.08 6.57-4.28 11.07-10.55 11.35-2.6.12-4.46-.7-6.1-1.74 1.92.3 4.3-.46 5.55-1.54-1.88-.2-2.98-1.14-3.5-2.67.54.1 1.1.07 1.62-.04-1.7-.56-2.9-1.6-2.95-3.8.47.22.96.43 1.63.46-1.27-.7-2.2-3.34-1.14-5.1C5.84 7.25 8.1 8.92 11.8 9.15 10.9 5.17 16.17 3 18.37 5.68c.93-.18 1.7-.54 2.42-.92-.3.92-.88 1.57-1.58 2.1.77-.12 1.46-.3 2.04-.6-.35.75-1.15 1.43-1.83 2z" opacity=".3"></path>
</svg>
